<svg xmlns="http://www.w3.org/2000/svg" viewBox="0 0 50 50" width="50" height="50"><style>tspan { white-space:pre }.shp0 { fill: #344055 } </style><g ><path fill-rule="evenodd" class="shp0" d="M14.59 0.88L34.76 0.88L41.86 7.83L48.95 14.79L48.95 34.49L42 41.76L35.05 49.03L14.81 49.03L7.81 41.82L0.8 34.61L0.8 14.86L7.7 7.87L14.59 0.88ZM34.49 1.83L14.88 1.83L8.33 8.58L1.78 15.34L1.78 24.75L1.78 34.16L8.51 41.09L15.23 48.03L34.66 48.03L41.33 41.04L48 34.06L48 24.61L48 15.16L41.25 8.49L34.49 1.83Z" /><path fill-rule="evenodd" class="shp0" d="M15.11 2.38L34.27 2.38L40.86 8.88L47.45 15.39L47.45 33.85L40.95 40.66L34.44 47.47L24.95 47.48L15.46 47.48L2.33 33.94L2.33 15.55L8.72 8.96L15.11 2.38ZM40.93 12.78L24.89 12.78C16.07 12.78 8.85 12.78 8.84 12.79C8.83 12.8 8.83 18.23 8.83 24.87L8.83 36.93L40.93 36.93L40.93 12.78Z" /><path fill-rule="evenodd" class="shp0" d="M9.38 13.33L40.4 13.33L40.4 15.24L40.39 17.16L34.83 17.16L29.28 17.15L29.28 20.4L33.68 20.4L33.68 32.13L35.31 32.12L36.94 32.11L36.95 26.25L36.95 20.4L40.4 20.4L40.4 36.38L9.38 36.38L9.38 32.1L12.82 32.1L13.28 31.14L13.73 30.18L16.56 30.18L19.38 30.19L19.82 31.1L20.26 32.02L24.07 32.02L23.84 31.55C22.58 28.96 16.76 17.23 16.75 17.25C16.74 17.25 15.08 20.52 13.06 24.5C11.05 28.48 9.39 31.74 9.39 31.75C9.38 31.75 9.38 27.61 9.38 22.54L9.38 13.33ZM21.39 17.04C21.38 17.05 21.38 18.89 21.38 21.13L21.38 25.21L23.06 28.64L24.75 32.06L25.84 32.06L26.94 32.06L27.19 31.99C28.6 31.59 29.74 30.93 30.7 29.98C31.56 29.12 32.1 28.23 32.44 27.06C32.8 25.84 32.86 24.24 32.61 22.89C32.49 22.23 32.21 21.44 31.97 21.06L31.9 20.95L28.73 20.95L28.72 19.41L28.71 17.86L28.56 17.77C28.34 17.64 28.02 17.5 27.65 17.38C27.07 17.19 26.59 17.09 25.92 17.05C25.52 17.02 21.42 17.01 21.39 17.04ZM37.61 21.8C37.51 21.98 37.51 21.99 37.51 22.28C37.51 22.58 37.52 22.59 37.6 22.76C37.71 23 37.9 23.18 38.14 23.29C38.31 23.38 38.37 23.39 38.57 23.39C38.93 23.41 39.18 23.32 39.42 23.09C39.65 22.88 39.78 22.59 39.78 22.29C39.78 21.75 39.42 21.31 38.9 21.19C38.37 21.06 37.84 21.31 37.61 21.8Z" /><path class="shp0" d="M24.6 24.6L24.6 28.9L24.72 28.91C24.88 28.94 25.52 28.91 25.85 28.86C26.84 28.71 27.62 28.36 28.25 27.76C28.86 27.18 29.26 26.45 29.45 25.58C29.51 25.28 29.51 25.22 29.51 24.63C29.51 24.06 29.51 23.96 29.46 23.7C29.37 23.28 29.27 22.98 29.09 22.61C28.89 22.21 28.66 21.88 28.35 21.58C27.7 20.93 26.92 20.57 25.81 20.4C25.47 20.35 24.93 20.3 24.72 20.3L24.6 20.3L24.6 24.6Z" /><path fill-rule="evenodd" class="shp0" d="M39.04 21.45C39.61 21.73 39.71 22.53 39.24 22.97C39.06 23.13 38.89 23.2 38.64 23.2C38.2 23.2 37.87 22.94 37.76 22.53C37.63 22.01 37.92 21.5 38.42 21.38C38.6 21.33 38.87 21.36 39.04 21.45ZM38.49 21.63L38.2 21.63L38.2 22.93L38.4 22.93L38.4 22.38L38.62 22.38L38.96 22.93L39.07 22.93C39.13 22.93 39.18 22.92 39.18 22.91C39.18 22.91 39.1 22.78 39 22.63L38.83 22.36L38.92 22.33C38.97 22.31 39.04 22.27 39.08 22.23C39.14 22.16 39.15 22.13 39.15 22C39.15 21.87 39.14 21.84 39.08 21.77C39.03 21.71 38.96 21.67 38.89 21.65C38.83 21.64 38.65 21.63 38.49 21.63Z" /><path class="shp0" d="M38.4 22L38.4 22.2L38.57 22.2C38.79 22.2 38.89 22.17 38.93 22.07C38.95 22.02 38.95 21.98 38.93 21.93C38.89 21.83 38.79 21.8 38.56 21.8L38.4 21.8L38.4 22Z" /><path class="shp0" d="M16.02 25.5C15.74 26.09 15.45 26.71 15.36 26.89L15.2 27.23L16.54 27.23L17.87 27.23L17.71 26.89C17.63 26.71 17.32 26.09 17.04 25.5L16.51 24.45L16.02 25.5Z" /></g></svg>